<?xml version="1.0" standalone="no"?>
<!DOCTYPE svg PUBLIC "-//W3C//DTD SVG 20010904//EN"
 "http://www.w3.org/TR/2001/REC-SVG-20010904/DTD/svg10.dtd">
<svg version="1.0" xmlns="http://www.w3.org/2000/svg"
 width="96.000000pt" height="96.000000pt" viewBox="0 0 96.000000 96.000000"
 preserveAspectRatio="xMidYMid meet">

<g transform="translate(0.000000,96.000000) scale(0.100000,-0.100000)"
fill="#000000" stroke="none">
<path d="M134 858 c-41 -19 -44 -45 -44 -379 0 -345 3 -370 52 -383 42 -11
445 -7 471 5 41 19 47 48 47 234 l0 175 88 0 c122 0 122 0 122 167 0 164 1
163 -131 163 -63 1 -102 5 -119 15 -20 11 -72 14 -245 14 -130 0 -229 -5 -241
-11z m466 -25 c-1 -5 -22 -25 -48 -45 l-47 -38 -148 0 c-83 0 -157 -5 -168
-10 -28 -15 -28 -115 0 -130 11 -5 85 -10 168 -10 l148 0 55 -45 c30 -25 58
-45 62 -45 14 0 9 -365 -4 -378 -17 -17 -63 -15 -78 3 -18 22 -312 22 -330 0
-15 -18 -61 -20 -78 -3 -17 17 -17 679 0 696 13 13 468 18 468 5z m240 -158
l0 -135 -111 0 -112 0 -68 55 c-102 84 -101 74 -12 149 l78 66 113 0 112 0 0
-135z m-388 33 c-16 -16 -15 -51 0 -66 10 -10 -15 -12 -122 -10 l-135 3 -3 28
c-7 56 -4 57 140 57 103 0 129 -3 120 -12z"/>
<path d="M183 503 c-8 -3 -13 -24 -13 -53 0 -51 9 -60 55 -60 46 0 55 9 55 60
0 34 -4 50 -16 54 -18 7 -63 7 -81 -1z m77 -53 c0 -28 -3 -30 -35 -30 -32 0
-35 2 -35 30 0 28 3 30 35 30 32 0 35 -2 35 -30z"/>
<path d="M333 503 c-8 -3 -13 -24 -13 -53 0 -51 9 -60 55 -60 46 0 55 9 55 60
0 34 -4 50 -16 54 -18 7 -63 7 -81 -1z m77 -53 c0 -28 -3 -30 -35 -30 -32 0
-35 2 -35 30 0 28 3 30 35 30 32 0 35 -2 35 -30z"/>
<path d="M483 503 c-8 -3 -13 -24 -13 -53 0 -51 9 -60 55 -60 46 0 55 9 55 60
0 34 -4 50 -16 54 -18 7 -63 7 -81 -1z m77 -53 c0 -28 -3 -30 -35 -30 -32 0
-35 2 -35 30 0 28 3 30 35 30 32 0 35 -2 35 -30z"/>
<path d="M182 351 c-9 -5 -12 -25 -10 -57 l3 -49 50 0 50 0 3 49 c4 55 -5 66
-53 66 -16 0 -36 -4 -43 -9z m78 -51 c0 -28 -3 -30 -35 -30 -32 0 -35 2 -35
30 0 28 3 30 35 30 32 0 35 -2 35 -30z"/>
<path d="M332 351 c-9 -5 -12 -25 -10 -57 l3 -49 50 0 50 0 3 49 c4 55 -5 66
-53 66 -16 0 -36 -4 -43 -9z m78 -51 c0 -28 -3 -30 -35 -30 -32 0 -35 2 -35
30 0 28 3 30 35 30 32 0 35 -2 35 -30z"/>
<path d="M482 351 c-9 -5 -12 -25 -10 -57 l3 -49 50 0 50 0 3 49 c4 55 -5 66
-53 66 -16 0 -36 -4 -43 -9z m78 -51 c0 -28 -3 -30 -35 -30 -32 0 -35 2 -35
30 0 28 3 30 35 30 32 0 35 -2 35 -30z"/>
<path d="M240 675 c0 -10 10 -15 30 -15 20 0 30 5 30 15 0 10 -10 15 -30 15
-20 0 -30 -5 -30 -15z"/>
<path d="M330 675 c0 -10 10 -15 30 -15 20 0 30 5 30 15 0 10 -10 15 -30 15
-20 0 -30 -5 -30 -15z"/>
</g>
</svg>
